<?xml version="1.0" encoding="UTF-8" standalone="no"?>
<!-- Created with Inkscape (http://www.inkscape.org/) -->

<svg
   width="5000"
   height="5000"
   viewBox="0 0 1322.9167 1322.9167"
   version="1.1"
   id="svg5"
   inkscape:version="1.1.2 (b8e25be833, 2022-02-05)"
   sodipodi:docname="1.svg"
   xmlns:inkscape="http://www.inkscape.org/namespaces/inkscape"
   xmlns:sodipodi="http://sodipodi.sourceforge.net/DTD/sodipodi-0.dtd"
   xmlns="http://www.w3.org/2000/svg"
   xmlns:svg="http://www.w3.org/2000/svg">
  <sodipodi:namedview
     id="namedview7"
     pagecolor="#505050"
     bordercolor="#eeeeee"
     borderopacity="1"
     inkscape:pageshadow="0"
     inkscape:pageopacity="0"
     inkscape:pagecheckerboard="0"
     inkscape:document-units="mm"
     showgrid="false"
     inkscape:zoom="0.056568542"
     inkscape:cx="3402.9514"
     inkscape:cy="2633.9728"
     inkscape:window-width="1024"
     inkscape:window-height="704"
     inkscape:window-x="-4"
     inkscape:window-y="-4"
     inkscape:window-maximized="1"
     inkscape:current-layer="layer1"
     units="px"
     inkscape:object-nodes="true" />
  <defs
     id="defs2" />
  <g
     inkscape:label="طبقة 1"
     inkscape:groupmode="layer"
     id="layer1">
    <g
       id="g33676"
       style="display:inline">
      <rect
         style="fill:#fff5cf;fill-opacity:1;stroke-width:11;stroke-linecap:round;stroke-dashoffset:656.886"
         id="rect35"
         width="1322.9166"
         height="1322.9166"
         x="2.0345053e-05"
         y="2.0345053e-05"
         ry="6.3659277" />
      <rect
         style="fill:#a9874d;fill-opacity:1;stroke-width:6.63138;stroke-linecap:round;stroke-dashoffset:656.886"
         id="rect2018"
         width="480.79004"
         height="1322.9166"
         x="842.12659"
         y="2.0345053e-05"
         ry="0" />
      <rect
         style="fill:#d4bf9b;fill-opacity:1;stroke-width:4.97235;stroke-linecap:round;stroke-dashoffset:656.886"
         id="rect32309"
         width="270.31528"
         height="1322.9166"
         x="2.0345053e-05"
         y="2.0345053e-05"
         ry="0" />
      <path
         id="circle13706"
         style="opacity:1;fill:#eccd7a;fill-opacity:1;stroke-width:33.9386;stroke-linecap:round;stroke-dashoffset:656.886"
         d="M 512.65234,3429.4668 A 1414.2137,1414.2137 0 0 0 0,3525.8203 V 4975.9395 C 0,4989.2688 10.731197,5000 24.060547,5000 H 1917.207 a 1414.2137,1414.2137 0 0 0 9.6582,-156.3184 A 1414.2137,1414.2137 0 0 0 512.65234,3429.4668 Z"
         transform="scale(0.26458333)" />
      <circle
         style="opacity:1;fill:#ffdc87;fill-opacity:1;stroke-width:5.5;stroke-linecap:round;stroke-dashoffset:656.886"
         id="path12721"
         cx="397.56329"
         cy="388.20905"
         r="229.18362" />
      <g
         id="g12641"
         transform="matrix(0.46142312,-0.2811862,0.2811862,0.46142312,-1140.6552,1671.4741)">
        <g
           id="g5190"
           transform="rotate(-26.300012,1119.6665,-1141.2276)">
          <path
             id="path3694"
             style="fill:#c09142;fill-opacity:1;stroke-width:11;stroke-linecap:round;stroke-dashoffset:656.886"
             d="M 2666.6905,81.639569 A 225.56961,225.56961 0 0 0 2494.8214,300.61378 225.56961,225.56961 0 0 0 2666.505,519.53892 225.56961,225.56961 0 0 0 2838.1886,300.61378 225.56961,225.56961 0 0 0 2666.6905,81.639569 Z" />
          <path
             id="path3959"
             style="fill:#994216;fill-opacity:1;stroke-width:41.5748;stroke-linecap:round;stroke-dashoffset:656.886"
             d="M 10078.996,308.60547 V 1963.3652 a 852.54656,852.54656 0 0 0 648.016,-827.1875 852.54656,852.54656 0 0 0 -648.016,-827.57223 z"
             transform="scale(0.26458333)" />
        </g>
        <g
           id="g5196"
           transform="rotate(49.74842,2600.2358,1326.3392)">
          <path
             id="path5192"
             style="fill:#c09142;fill-opacity:1;stroke-width:11;stroke-linecap:round;stroke-dashoffset:656.886"
             d="M 2666.6905,81.639569 A 225.56961,225.56961 0 0 0 2494.8214,300.61378 225.56961,225.56961 0 0 0 2666.505,519.53892 225.56961,225.56961 0 0 0 2838.1886,300.61378 225.56961,225.56961 0 0 0 2666.6905,81.639569 Z" />
          <path
             id="path5194"
             style="fill:#994216;fill-opacity:1;stroke-width:41.5748;stroke-linecap:round;stroke-dashoffset:656.886"
             d="M 10078.996,308.60547 V 1963.3652 a 852.54656,852.54656 0 0 0 648.016,-827.1875 852.54656,852.54656 0 0 0 -648.016,-827.57223 z"
             transform="scale(0.26458333)" />
        </g>
        <g
           id="g5202"
           transform="matrix(-0.34801742,0.41107179,0.41107179,0.34801742,3781.1908,-459.30771)">
          <path
             id="path5198"
             style="fill:#c09142;fill-opacity:1;stroke-width:11;stroke-linecap:round;stroke-dashoffset:656.886"
             d="M 2666.6905,81.639569 A 225.56961,225.56961 0 0 0 2494.8214,300.61378 225.56961,225.56961 0 0 0 2666.505,519.53892 225.56961,225.56961 0 0 0 2838.1886,300.61378 225.56961,225.56961 0 0 0 2666.6905,81.639569 Z" />
          <path
             id="path5200"
             style="fill:#994216;fill-opacity:1;stroke-width:41.5748;stroke-linecap:round;stroke-dashoffset:656.886"
             d="M 10078.996,308.60547 V 1963.3652 a 852.54656,852.54656 0 0 0 648.016,-827.1875 852.54656,852.54656 0 0 0 -648.016,-827.57223 z"
             transform="scale(0.26458333)" />
        </g>
        <path
           style="fill:#672300;fill-opacity:1;stroke:none;stroke-width:0.264583px;stroke-linecap:butt;stroke-linejoin:miter;stroke-opacity:1"
           d="m 3203.0887,1062.6835 c -3.4926,1.4565 -17.7768,-20.7384 -33.2198,-63.61174 -15.4687,-42.94458 -31.2101,-106.68379 -32.1238,-185.20016 -0.8727,-72.88192 11.2021,-155.96479 45.0459,-239.1436 2.2457,-5.51929 4.5651,-10.98329 6.9562,-16.39053 36.6345,-82.72442 88.3649,-148.95759 140.9508,-198.29827 53.3246,-50.0609 106.2341,-81.5539 144.6213,-99.50738 38.3873,-17.95348 62.2001,-23.27615 63.6174,-19.92423 1.4173,3.35192 -19.5545,14.94829 -53.9108,37.39963 -34.4411,22.50679 -81.8286,56.37553 -130.2247,106.50608 -47.4356,49.16372 -94.371,112.59822 -128.346,190.00995 -2.2247,5.06096 -4.3894,10.17352 -6.4923,15.33671 -31.6557,77.72136 -44.7521,155.43289 -47.056,224.3668 -2.459,74.36648 7.5862,135.84357 16.8473,179.14088 9.2199,43.10466 16.8271,67.85936 13.3345,69.31586 z"
           id="path5314" />
        <path
           style="fill:#3f0e00;fill-opacity:1;stroke:none;stroke-width:0.264583px;stroke-linecap:butt;stroke-linejoin:miter;stroke-opacity:1"
           d="m 3087.7974,631.59493 c -2.9833,1.2624 -14.8883,-15.9046 -26.5172,-50.77173 -11.6289,-34.86713 -22.3211,-88.44578 -14.0937,-153.23174 0,-10e-6 0,-2e-5 0,-3e-5 7.8991,-62.02545 33.6338,-132.83452 85.8999,-194.7335 21.4523,-25.29385 45.0515,-46.86214 69.5756,-69.25155 4.6434,-4.26605 9.3146,-8.55774 13.9254,-12.84129 18.9382,-17.59427 36.3127,-34.56326 51.2464,-52.955424 23.1566,-28.339033 40.4172,-59.881235 52.1632,-91.5496225 13.1908,-35.6123645 19.3704,-71.0841225 20.2876,-104.0068785 1.1478,-40.325595 -5.5412,-76.626105 -14.3085,-106.117825 -9.6248,-32.34202 -22.0425,-57.56254 -30.627,-74.18639 -8.7281,-16.90196 -13.8779,-26.25298 -12.0579,-27.7211 3.64,-2.93625 38.5505,25.95805 66.0607,93.65455 12.4771,30.67982 22.6862,69.64346 23.8346,114.370765 0.9174,36.508896 -4.2744,76.264533 -17.8555,116.481706 -12.0725,35.796869 -30.6873,71.542087 -56.5824,104.012419 -16.6993,20.82267 -35.3224,39.3635 -54.8205,57.461 -4.755,4.41346 -9.5131,8.75609 -14.2189,13.02509 -24.7251,22.57139 -47.2411,42.56971 -66.8968,65.14916 -47.3742,54.15232 -73.6607,117.9496 -84.1765,174.11011 0,10e-6 0,2e-5 0,3e-5 -11.0293,58.77806 -5.8333,109.38568 0.1132,143.90572 5.9466,34.52004 12.0316,53.93413 9.0483,55.19653 z"
           id="path5513" />
        <g
           id="g5603"
           transform="matrix(-0.47929581,0.38131445,0.38131445,0.47929581,4106.259,-959.00571)">
          <path
             id="path5599"
             style="fill:#c09142;fill-opacity:1;stroke-width:11;stroke-linecap:round;stroke-dashoffset:656.886"
             d="M 2666.6905,81.639569 A 225.56961,225.56961 0 0 0 2494.8214,300.61378 225.56961,225.56961 0 0 0 2666.505,519.53892 225.56961,225.56961 0 0 0 2838.1886,300.61378 225.56961,225.56961 0 0 0 2666.6905,81.639569 Z" />
          <path
             id="path5601"
             style="fill:#994216;fill-opacity:1;stroke-width:41.5748;stroke-linecap:round;stroke-dashoffset:656.886"
             d="M 10078.996,308.60547 V 1963.3652 a 852.54656,852.54656 0 0 0 648.016,-827.1875 852.54656,852.54656 0 0 0 -648.016,-827.57223 z"
             transform="scale(0.26458333)" />
        </g>
        <g
           id="g5609"
           transform="matrix(-0.16610893,-0.23685251,-0.23685251,0.16610893,3955.6714,522.09291)">
          <path
             id="path5605"
             style="fill:#c09142;fill-opacity:1;stroke-width:11;stroke-linecap:round;stroke-dashoffset:656.886"
             d="M 2666.6905,81.639569 A 225.56961,225.56961 0 0 0 2494.8214,300.61378 225.56961,225.56961 0 0 0 2666.505,519.53892 225.56961,225.56961 0 0 0 2838.1886,300.61378 225.56961,225.56961 0 0 0 2666.6905,81.639569 Z" />
          <path
             id="path5607"
             style="fill:#994216;fill-opacity:1;stroke-width:41.5748;stroke-linecap:round;stroke-dashoffset:656.886"
             d="M 10078.996,308.60547 V 1963.3652 a 852.54656,852.54656 0 0 0 648.016,-827.1875 852.54656,852.54656 0 0 0 -648.016,-827.57223 z"
             transform="scale(0.26458333)" />
        </g>
        <path
           id="path10921"
           style="fill:#798200;fill-opacity:1;stroke-width:4.18434;stroke-linecap:round;stroke-dashoffset:656.886"
           d="m 3107.5481,-18.811814 a 85.805499,85.805499 0 0 0 30.6578,101.354449 85.805499,85.805499 0 0 0 105.6804,-5.651805 85.805499,85.805499 0 0 0 -30.683,-101.285964 85.805499,85.805499 0 0 0 -105.6552,5.58332 z" />
        <path
           id="path12620"
           style="fill:#798200;fill-opacity:1;stroke-width:2.46499;stroke-linecap:round;stroke-dashoffset:656.886"
           d="m 3348.8269,230.92031 a 50.547851,50.547851 45 0 1 -48.9583,38.65589 50.547851,50.547851 45 0 1 -49.17,-38.33042 50.547851,50.547851 45 0 1 48.9474,-38.61433 50.547851,50.547851 45 0 1 49.1809,38.28886 z" />
      </g>
      <g
         id="g12681"
         transform="matrix(-0.3058611,0.08760018,0.08760018,0.3058611,1492.9311,18.628397)">
        <g
           id="g12647"
           transform="rotate(-26.300012,1119.6665,-1141.2276)">
          <path
             id="path12643"
             style="fill:#c09142;fill-opacity:1;stroke-width:11;stroke-linecap:round;stroke-dashoffset:656.886"
             d="M 2666.6905,81.639569 A 225.56961,225.56961 0 0 0 2494.8214,300.61378 225.56961,225.56961 0 0 0 2666.505,519.53892 225.56961,225.56961 0 0 0 2838.1886,300.61378 225.56961,225.56961 0 0 0 2666.6905,81.639569 Z" />
          <path
             id="path12645"
             style="fill:#994216;fill-opacity:1;stroke-width:41.5748;stroke-linecap:round;stroke-dashoffset:656.886"
             d="M 10078.996,308.60547 V 1963.3652 a 852.54656,852.54656 0 0 0 648.016,-827.1875 852.54656,852.54656 0 0 0 -648.016,-827.57223 z"
             transform="scale(0.26458333)" />
        </g>
        <g
           id="g12653"
           transform="rotate(49.74842,2600.2358,1326.3392)">
          <path
             id="path12649"
             style="fill:#c09142;fill-opacity:1;stroke-width:11;stroke-linecap:round;stroke-dashoffset:656.886"
             d="M 2666.6905,81.639569 A 225.56961,225.56961 0 0 0 2494.8214,300.61378 225.56961,225.56961 0 0 0 2666.505,519.53892 225.56961,225.56961 0 0 0 2838.1886,300.61378 225.56961,225.56961 0 0 0 2666.6905,81.639569 Z" />
          <path
             id="path12651"
             style="fill:#994216;fill-opacity:1;stroke-width:41.5748;stroke-linecap:round;stroke-dashoffset:656.886"
             d="M 10078.996,308.60547 V 1963.3652 a 852.54656,852.54656 0 0 0 648.016,-827.1875 852.54656,852.54656 0 0 0 -648.016,-827.57223 z"
             transform="scale(0.26458333)" />
        </g>
        <g
           id="g12659"
           transform="matrix(-0.34801742,0.41107179,0.41107179,0.34801742,3781.1908,-459.30771)">
          <path
             id="path12655"
             style="fill:#c09142;fill-opacity:1;stroke-width:11;stroke-linecap:round;stroke-dashoffset:656.886"
             d="M 2666.6905,81.639569 A 225.56961,225.56961 0 0 0 2494.8214,300.61378 225.56961,225.56961 0 0 0 2666.505,519.53892 225.56961,225.56961 0 0 0 2838.1886,300.61378 225.56961,225.56961 0 0 0 2666.6905,81.639569 Z" />
          <path
             id="path12657"
             style="fill:#994216;fill-opacity:1;stroke-width:41.5748;stroke-linecap:round;stroke-dashoffset:656.886"
             d="M 10078.996,308.60547 V 1963.3652 a 852.54656,852.54656 0 0 0 648.016,-827.1875 852.54656,852.54656 0 0 0 -648.016,-827.57223 z"
             transform="scale(0.26458333)" />
        </g>
        <path
           style="fill:#672300;fill-opacity:1;stroke:none;stroke-width:0.264583px;stroke-linecap:butt;stroke-linejoin:miter;stroke-opacity:1"
           d="m 3203.0887,1062.6835 c -3.4926,1.4565 -17.7768,-20.7384 -33.2198,-63.61174 -15.4687,-42.94458 -31.2101,-106.68379 -32.1238,-185.20016 -0.8727,-72.88192 11.2021,-155.96479 45.0459,-239.1436 2.2457,-5.51929 4.5651,-10.98329 6.9562,-16.39053 36.6345,-82.72442 88.3649,-148.95759 140.9508,-198.29827 53.3246,-50.0609 106.2341,-81.5539 144.6213,-99.50738 38.3873,-17.95348 62.2001,-23.27615 63.6174,-19.92423 1.4173,3.35192 -19.5545,14.94829 -53.9108,37.39963 -34.4411,22.50679 -81.8286,56.37553 -130.2247,106.50608 -47.4356,49.16372 -94.371,112.59822 -128.346,190.00995 -2.2247,5.06096 -4.3894,10.17352 -6.4923,15.33671 -31.6557,77.72136 -44.7521,155.43289 -47.056,224.3668 -2.459,74.36648 7.5862,135.84357 16.8473,179.14088 9.2199,43.10466 16.8271,67.85936 13.3345,69.31586 z"
           id="path12661" />
        <path
           style="fill:#3f0e00;fill-opacity:1;stroke:none;stroke-width:0.264583px;stroke-linecap:butt;stroke-linejoin:miter;stroke-opacity:1"
           d="m 3087.7974,631.59493 c -2.9833,1.2624 -14.8883,-15.9046 -26.5172,-50.77173 -11.6289,-34.86713 -22.3211,-88.44578 -14.0937,-153.23174 0,-10e-6 0,-2e-5 0,-3e-5 7.8991,-62.02545 33.6338,-132.83452 85.8999,-194.7335 21.4523,-25.29385 45.0515,-46.86214 69.5756,-69.25155 4.6434,-4.26605 9.3146,-8.55774 13.9254,-12.84129 18.9382,-17.59427 36.3127,-34.56326 51.2464,-52.955424 23.1566,-28.339033 40.4172,-59.881235 52.1632,-91.5496225 13.1908,-35.6123645 19.3704,-71.0841225 20.2876,-104.0068785 1.1478,-40.325595 -5.5412,-76.626105 -14.3085,-106.117825 -9.6248,-32.34202 -22.0425,-57.56254 -30.627,-74.18639 -8.7281,-16.90196 -13.8779,-26.25298 -12.0579,-27.7211 3.64,-2.93625 38.5505,25.95805 66.0607,93.65455 12.4771,30.67982 22.6862,69.64346 23.8346,114.370765 0.9174,36.508896 -4.2744,76.264533 -17.8555,116.481706 -12.0725,35.796869 -30.6873,71.542087 -56.5824,104.012419 -16.6993,20.82267 -35.3224,39.3635 -54.8205,57.461 -4.755,4.41346 -9.5131,8.75609 -14.2189,13.02509 -24.7251,22.57139 -47.2411,42.56971 -66.8968,65.14916 -47.3742,54.15232 -73.6607,117.9496 -84.1765,174.11011 0,10e-6 0,2e-5 0,3e-5 -11.0293,58.77806 -5.8333,109.38568 0.1132,143.90572 5.9466,34.52004 12.0316,53.93413 9.0483,55.19653 z"
           id="path12663" />
        <g
           id="g12669"
           transform="matrix(-0.47929581,0.38131445,0.38131445,0.47929581,4106.259,-959.00571)">
          <path
             id="path12665"
             style="fill:#c09142;fill-opacity:1;stroke-width:11;stroke-linecap:round;stroke-dashoffset:656.886"
             d="M 2666.6905,81.639569 A 225.56961,225.56961 0 0 0 2494.8214,300.61378 225.56961,225.56961 0 0 0 2666.505,519.53892 225.56961,225.56961 0 0 0 2838.1886,300.61378 225.56961,225.56961 0 0 0 2666.6905,81.639569 Z" />
          <path
             id="path12667"
             style="fill:#994216;fill-opacity:1;stroke-width:41.5748;stroke-linecap:round;stroke-dashoffset:656.886"
             d="M 10078.996,308.60547 V 1963.3652 a 852.54656,852.54656 0 0 0 648.016,-827.1875 852.54656,852.54656 0 0 0 -648.016,-827.57223 z"
             transform="scale(0.26458333)" />
        </g>
        <g
           id="g12675"
           transform="matrix(-0.16610893,-0.23685251,-0.23685251,0.16610893,3955.6714,522.09291)">
          <path
             id="path12671"
             style="fill:#c09142;fill-opacity:1;stroke-width:11;stroke-linecap:round;stroke-dashoffset:656.886"
             d="M 2666.6905,81.639569 A 225.56961,225.56961 0 0 0 2494.8214,300.61378 225.56961,225.56961 0 0 0 2666.505,519.53892 225.56961,225.56961 0 0 0 2838.1886,300.61378 225.56961,225.56961 0 0 0 2666.6905,81.639569 Z" />
          <path
             id="path12673"
             style="fill:#994216;fill-opacity:1;stroke-width:41.5748;stroke-linecap:round;stroke-dashoffset:656.886"
             d="M 10078.996,308.60547 V 1963.3652 a 852.54656,852.54656 0 0 0 648.016,-827.1875 852.54656,852.54656 0 0 0 -648.016,-827.57223 z"
             transform="scale(0.26458333)" />
        </g>
        <path
           id="path12677"
           style="fill:#798200;fill-opacity:1;stroke-width:4.18434;stroke-linecap:round;stroke-dashoffset:656.886"
           d="m 3107.5481,-18.811814 a 85.805499,85.805499 0 0 0 30.6578,101.354449 85.805499,85.805499 0 0 0 105.6804,-5.651805 85.805499,85.805499 0 0 0 -30.683,-101.285964 85.805499,85.805499 0 0 0 -105.6552,5.58332 z" />
        <path
           id="path12679"
           style="fill:#798200;fill-opacity:1;stroke-width:2.46499;stroke-linecap:round;stroke-dashoffset:656.886"
           d="m 3348.8269,230.92031 a 50.547851,50.547851 45 0 1 -48.9583,38.65589 50.547851,50.547851 45 0 1 -49.17,-38.33042 50.547851,50.547851 45 0 1 48.9474,-38.61433 50.547851,50.547851 45 0 1 49.1809,38.28886 z" />
      </g>
      <path
         id="path16838"
         style="opacity:1;fill:#e9c155;fill-opacity:1;stroke-width:37.3767;stroke-linecap:round;stroke-dashoffset:656.886"
         d="M 3196.1895,0 A 1557.4771,1557.4771 0 0 0 4736.5469,1331.8848 1557.4771,1557.4771 0 0 0 5000,1308.9961 V 0 Z"
         transform="scale(0.26458333)" />
      <path
         id="path19929"
         style="opacity:1;fill:#d4b967;fill-opacity:1;stroke-width:9.95466;stroke-linecap:round;stroke-dashoffset:656.886"
         d="m 845.65839,1322.9166 a 412.08248,417.55192 0 0 1 407.55291,-357.07169 412.08248,417.55192 0 0 1 69.7053,6.13634 v 350.93535 z" />
      <path
         id="path21930"
         style="fill:#ffcc00;fill-opacity:1;stroke-width:6.11609;stroke-linecap:round;stroke-dashoffset:656.886"
         d="m 926.50809,853.37858 a 125.4185,125.4185 0 0 0 -4.56413,154.70732 125.4185,125.4185 0 0 0 145.15964,42.7096 c -1.9699,-2.4022 -3.9394,-4.8018 -5.9317,-7.2613 -43.6026,-53.82254 -75.48781,-100.34202 -71.17229,-103.838 4.31547,-3.49604 43.20579,37.34902 86.80809,91.1715 1.35,1.666 2.6513,3.3012 3.9782,4.9521 a 125.4185,125.4185 0 0 0 -5.251,-141.12786 125.4185,125.4185 0 0 0 -149.02696,-41.31326 z m 154.27781,182.44102 a 125.4185,125.4185 0 0 1 -9.7479,13.4965 125.4185,125.4185 0 0 1 -3.9344,1.4794 c 41.1393,50.1688 76.7579,87.2465 80.8762,83.9102 4.1819,-3.3875 -25.6669,-47.2011 -67.1939,-98.8861 z" />
      <path
         id="path23264"
         style="fill:#d0bd00;fill-opacity:1;stroke-width:3.94264;stroke-linecap:round;stroke-dashoffset:656.886"
         d="m 1205.3013,563.74459 a 80.849101,80.849101 0 0 1 2.9422,99.72972 80.849101,80.849101 0 0 1 -93.5749,27.5321 c 1.2699,-1.5486 2.5395,-3.0955 3.8238,-4.6809 28.1077,-34.6959 48.662,-64.68397 45.8801,-66.9376 -2.7819,-2.25366 -27.852,24.07648 -55.9595,58.7723 -0.8703,1.074 -1.7091,2.1281 -2.5645,3.1923 a 80.849101,80.849101 0 0 1 3.385,-90.9759 80.849101,80.849101 0 0 1 96.0679,-26.63196 z m -99.4528,117.60782 a 80.849101,80.849101 0 0 0 6.2839,8.7003 80.849101,80.849101 0 0 0 2.5362,0.9537 c -26.5198,32.3405 -49.4808,56.2421 -52.1356,54.0914 -2.6958,-2.1837 16.5458,-30.4275 43.3155,-63.7454 z" />
      <path
         id="path23266"
         style="fill:#958800;fill-opacity:1;stroke-width:3.94264;stroke-linecap:round;stroke-dashoffset:656.886"
         d="m 1057.8548,156.9477 a 80.849101,80.849101 0 0 0 -2.9422,99.72972 80.849101,80.849101 0 0 0 93.5749,27.5321 c -1.2699,-1.5486 -2.5395,-3.0955 -3.8238,-4.6809 -28.1077,-34.6959 -48.662,-64.68397 -45.8801,-66.9376 2.7819,-2.25366 27.852,24.07648 55.9595,58.7723 0.8703,1.074 1.7091,2.1281 2.5645,3.1923 a 80.849101,80.849101 0 0 0 -3.385,-90.9759 80.849101,80.849101 0 0 0 -96.0679,-26.63196 z m 99.4528,117.60782 a 80.849101,80.849101 0 0 1 -6.2839,8.7003 80.849101,80.849101 0 0 1 -2.5362,0.9537 c 26.5198,32.3405 49.4808,56.2421 52.1356,54.0914 2.6958,-2.1837 -16.5458,-30.4275 -43.3155,-63.7454 z" />
      <path
         id="path25934"
         style="fill:#d4aa00;fill-opacity:1;stroke-width:2.96995;stroke-linecap:round;stroke-dashoffset:656.886"
         d="m 930.97365,509.3005 a 60.902889,60.902889 0 0 0 -2.21634,75.12549 60.902889,60.902889 0 0 0 70.4891,20.73968 c -0.95661,-1.16655 -1.91298,-2.33182 -2.88044,-3.52608 -21.17323,-26.13611 -36.6566,-48.72585 -34.56102,-50.42349 2.09558,-1.69766 20.98066,18.1366 42.15375,44.27264 0.6556,0.80903 1.2874,1.60308 1.9318,2.40473 a 60.902889,60.902889 0 0 0 -2.5499,-68.53131 60.902889,60.902889 0 0 0 -72.36703,-20.06162 z m 74.91685,88.5929 a 60.902889,60.902889 0 0 1 -4.7336,6.55385 60.902889,60.902889 0 0 1 -1.91049,0.71842 c 19.97709,24.3618 37.27339,42.36665 39.27329,40.74655 2.0307,-1.64496 -12.4638,-22.92076 -32.6292,-48.01882 z" />
      <path
         id="path31846"
         style="fill:#958800;fill-opacity:1;stroke-width:2.41414;stroke-linecap:round;stroke-dashoffset:656.886"
         d="m 1277.1189,85.094334 a 49.505054,49.505054 0 0 1 1.8016,61.065926 49.505054,49.505054 0 0 1 -57.2973,16.8583 c 0.7776,-0.94824 1.555,-1.89542 2.3413,-2.86619 17.2108,-21.24479 29.7965,-39.60691 28.0931,-40.98684 -1.7034,-1.37995 -17.0541,14.74237 -34.2648,35.98711 -0.533,0.65762 -1.0465,1.30307 -1.5703,1.95469 a 49.505054,49.505054 0 0 1 2.0727,-55.70583 49.505054,49.505054 0 0 1 58.8237,-16.307129 z m -60.8964,72.012946 a 49.505054,49.505054 0 0 0 3.8478,5.32731 49.505054,49.505054 0 0 0 1.5529,0.58397 c -16.2385,19.80254 -30.2978,34.43784 -31.9233,33.12093 -1.6507,-1.33711 10.1312,-18.6312 26.5226,-39.03221 z" />
      <path
         id="path33468"
         style="fill:#958800;fill-opacity:1;stroke-width:3.75121;stroke-linecap:round;stroke-dashoffset:656.886"
         d="m 141.39108,1252.3765 a 76.923597,76.923597 0 0 1 -2.79928,-94.8875 76.923597,76.923597 0 0 1 89.03152,-26.1953 c -1.20825,1.4734 -2.41624,2.9452 -3.63821,4.4537 -26.74299,33.0112 -46.29923,61.5434 -43.65248,63.6875 2.64684,2.1443 26.49973,-22.9076 53.24254,-55.9188 0.82804,-1.0217 1.62608,-2.0247 2.43996,-3.0371 a 76.923597,76.923597 0 0 1 -3.22065,86.5586 76.923597,76.923597 0 0 1 -91.40349,25.3389 z m 94.62405,-111.8975 a 76.923597,76.923597 0 0 0 -5.97885,-8.2779 76.923597,76.923597 0 0 0 -2.41296,-0.9074 c 25.23208,-30.7703 47.07832,-53.5113 49.60415,-51.4651 2.56496,2.0778 -15.7424,28.9501 -41.21234,60.6504 z" />
    </g>
  </g>
</svg>
